<svg xmlns="http://www.w3.org/2000/svg" xmlns:xlink="http://www.w3.org/1999/xlink" preserveAspectRatio="xMidYMid" width="58.722" height="59.956" viewBox="0 0 856 874">
  <defs>
    <style>
      .cls-1, .cls-2 {
        stroke: #1fbba6;
        stroke-width: 13px;
        fill: none;
      }

      .cls-1 {
        fill-rule: evenodd;
      }
    </style>
  </defs>
  <g>
    <path d="M126.316,283.936 L455.367,85.000 L791.000,287.889 L455.367,502.635 L294.790,395.921 L451.419,299.746 L406.668,264.175 L240.826,368.254 L126.316,283.936 Z" class="cls-1"/>
    <path d="M250.040,428.857 C243.033,445.976 246.091,556.651 246.091,556.651 C246.091,556.651 449.994,802.441 662.012,546.111 C660.808,544.900 662.012,422.270 662.012,422.270 L463.265,554.016 C463.265,554.016 257.045,411.738 250.040,428.857 Z" class="cls-1"/>
    <path d="M172.119,362.151 L207.921,393.866 L205.288,632.326 L170.119,632.326 L172.119,362.151 Z" class="cls-1"/>
    <ellipse cx="186.859" cy="687.078" rx="61.859" ry="61.922" class="cls-2"/>
  </g>
</svg>
