<svg xmlns="http://www.w3.org/2000/svg" xmlns:xlink="http://www.w3.org/1999/xlink" preserveAspectRatio="xMidYMid" width="52.345" height="59.945" viewBox="0 0 551 631">
  <defs>
    <style>
      .cls-1, .cls-2, .cls-3 {
        stroke: #1fbba6;
        fill: none;
      }

      .cls-1 {
        stroke-width: 13px;
      }

      .cls-1, .cls-3 {
        fill-rule: evenodd;
      }

      .cls-2, .cls-3 {
        stroke-width: 8px;
      }
    </style>
  </defs>
  <path d="M205.393,429.672 C205.393,429.672 48.539,356.571 116.336,201.705 C168.216,94.547 262.202,97.457 263.999,97.769 C265.796,98.081 379.663,87.773 429.970,196.494 C496.627,353.631 342.608,429.737 341.831,428.061 C341.450,427.817 341.597,493.889 341.597,493.889 L205.906,495.342 L204.493,421.661 " class="cls-1"/>
  <rect x="212.344" y="512.063" width="137.5" height="21.125" rx="10" ry="10" class="cls-2"/>
  <rect x="212.344" y="551.813" width="137.5" height="21.093" rx="10" ry="10" class="cls-2"/>
  <path d="M242.516,589.844 L318.922,589.844 C323.936,589.844 328.000,593.908 328.000,598.922 C328.000,603.936 323.936,608.000 318.922,608.000 L242.516,608.000 C237.502,608.000 233.437,603.936 233.437,598.922 C233.437,593.908 237.502,589.844 242.516,589.844 Z" class="cls-3"/>
  <path d="M270.028,85.342 C264.086,85.492 259.198,82.820 259.110,79.373 L257.719,24.512 C257.631,21.065 262.378,18.149 268.320,17.998 C274.262,17.848 279.150,20.520 279.238,23.967 L280.629,78.828 C280.717,82.275 275.970,85.191 270.028,85.342 Z" class="cls-3"/>
  <path d="M411.781,128.418 C407.256,124.567 405.400,119.318 407.638,116.693 L443.245,74.910 C445.483,72.285 450.965,73.278 455.491,77.129 C460.016,80.980 461.871,86.229 459.634,88.854 L424.027,130.637 C421.789,133.262 416.307,132.269 411.781,128.418 Z" class="cls-3"/>
  <path d="M129.322,142.325 C125.506,146.879 120.267,148.776 117.622,146.563 L75.511,111.332 C72.865,109.119 73.814,103.633 77.630,99.079 C81.446,94.525 86.684,92.627 89.330,94.841 L131.440,130.071 C134.086,132.285 133.137,137.771 129.322,142.325 Z" class="cls-3"/>
  <path d="M460.620,269.278 C460.392,263.343 463.002,258.424 466.450,258.292 L521.332,256.185 C524.780,256.053 527.761,260.757 527.989,266.692 C528.217,272.627 525.607,277.546 522.158,277.678 L467.276,279.784 C463.828,279.917 460.848,275.213 460.620,269.278 Z" class="cls-3"/>
  <path d="M13.995,280.907 C13.767,274.972 16.378,270.053 19.826,269.921 L74.708,267.815 C78.156,267.682 81.136,272.386 81.364,278.321 C81.592,284.256 78.982,289.175 75.534,289.307 L20.652,291.414 C17.204,291.546 14.224,286.842 13.995,280.907 Z" class="cls-3"/>
  <path d="M389.768,429.430 C392.830,424.339 397.710,421.652 400.667,423.428 L447.742,451.698 C450.700,453.474 450.615,459.041 447.553,464.132 C444.491,469.223 439.611,471.910 436.654,470.133 L389.579,441.864 C386.621,440.088 386.706,434.521 389.768,429.430 Z" class="cls-3"/>
  <path d="M152.227,415.118 C156.789,418.927 158.692,424.159 156.480,426.805 L121.262,468.916 C119.049,471.562 113.558,470.620 108.997,466.811 C104.436,463.003 102.532,457.770 104.744,455.125 L139.962,413.013 C142.175,410.367 147.666,411.310 152.227,415.118 Z" class="cls-3"/>
</svg>
