<svg xmlns="http://www.w3.org/2000/svg" xmlns:xlink="http://www.w3.org/1999/xlink" preserveAspectRatio="xMidYMid" width="59.15" height="59.979" viewBox="0 0 856 868">
  <defs>
    <style>
      .cls-1, .cls-2 {
        stroke: #1fbba6;
        stroke-width: 4px;
        fill: none;
      }

      .cls-1 {
        fill-rule: evenodd;
      }
    </style>
  </defs>
  <path d="M404.608,233.643 C474.935,224.098 500.025,248.045 505.469,295.012 C506.565,329.363 505.530,342.709 505.530,342.709 L510.598,344.448 C510.598,344.448 511.024,389.504 491.793,402.407 C483.633,418.859 476.035,457.395 507.179,472.300 C512.228,477.742 543.692,494.369 614.877,523.440 C616.082,524.125 633.682,596.742 633.682,596.742 L240.496,600.151 L254.172,525.145 C254.172,525.145 298.428,508.100 365.290,470.595 C392.615,458.716 388.979,423.421 372.128,395.589 C361.998,391.806 351.999,340.098 361.871,341.039 C362.970,345.027 338.375,238.852 404.608,233.643 " class="cls-1"/>
  <ellipse cx="432.094" cy="135.938" rx="41.75" ry="46.938" class="cls-2"/>
  <ellipse cx="745.25" cy="457.594" rx="41.75" ry="46.938" class="cls-2"/>
  <ellipse cx="426.875" cy="767.063" rx="41.75" ry="46.938" class="cls-2"/>
  <path d="M467.633,141.256 L472.846,136.943 L740.748,412.545 L735.535,416.858 L467.633,141.256 Z" class="cls-1"/>
  <path d="M469.576,766.989 L464.994,762.202 L741.432,501.006 L746.014,505.794 L469.576,766.989 Z" class="cls-1"/>
  <path d="M122.517,418.000 L118.001,412.996 L390.474,139.986 L394.990,144.990 L122.517,418.000 Z" class="cls-1"/>
  <path d="M124.004,498.132 L129.082,494.003 L389.995,757.885 L384.917,762.014 L124.004,498.132 Z" class="cls-1"/>
  <ellipse cx="106.75" cy="457.594" rx="41.75" ry="46.938" class="cls-2"/>
</svg>
